# AST/ASF file generated using VICON BodyLanguage
# -----------------------------------------------
:version 1.10
:name VICON
:units
  mass 1.0
  length 0.45
  angle deg
:documentation
   .ast/.asf automatically generated from VICON data using
   VICON BodyBuilder and BodyLanguage model FoxedUp or BRILLIANT.MOD
:root
   order TX TY TZ RX RY RZ
   axis XYZ
   position 0 0 0  
   orientation 0 0 0 
:bonedata
  begin
     id 1 
     name lhipjoint
     direction 0.693937 -0.600361 0.397515 
     length 2.37164 
     axis 0 0 0  XYZ
  end
  begin
     id 2 
     name lfemur
     direction 0.34202 -0.939693 0  
     length 6.18497  
     axis 0 0 20  XYZ
    dof rx ry rz
    limits (-160.0 20.0)
           (-70.0 70.0)
           (-60.0 70.0)
  end
  begin
     id 3 
     name ltibia
     direction 0.34202 -0.939693 0   
     length 6.91601   
     axis 0 0 20   XYZ
    dof rx
    limits (-10.0 170.0)
  end
  begin
     id 4 
     name lfoot
     direction 0.0978718 -0.2689 0.958182   
     length 1.81453   
     axis -90 7.62852e-016 20   XYZ
    dof rx rz
    limits (-45.0 90.0)
           (-70.0 20.0)
  end
  begin
     id 5 
     name ltoes
     direction 1.53569e-011 -4.21951e-011 1   
     length 0.912052   
     axis -90 7.62852e-016 20   XYZ
    dof rx
    limits (-90.0 20.0)
  end
  begin
     id 6 
     name rhipjoint
     direction -0.643996 -0.637876 0.422354   
     length 2.23216  
     axis 0 0 0  XYZ 
  end
  begin
     id 7 
     name rfemur
     direction -0.34202 -0.939693 0   
     length 6.15404   
     axis 0 0 -20   XYZ
    dof rx ry rz
    limits (-160.0 20.0)
           (-70.0 70.0)
           (-70.0 60.0)
  end
  begin
     id 8 
     name rtibia
     direction -0.34202 -0.939693 0   
     length 6.86744   
     axis 0 0 -20   XYZ
    dof rx
    limits (-10.0 170.0)
 end
 begin
     id 9 
     name rfoot
     direction -0.118701 -0.326127 0.937844   
     length 1.9243  
     axis -90 -7.62852e-016 -20   XYZ
    dof rx rz
    limits (-45.0 90.0)
           (-20.0 70.0)
  end
  begin
     id 10 
     name rtoes
     direction -1.5356e-011 -4.2181e-011 1   
     length 0.958865   
     axis -90 -7.62852e-016 -20   XYZ
    dof rx
    limits (-90.0 20.0)
  end
  begin
     id 11 
     name lowerback
     direction 0.0310826 0.968686 -0.246334   
     length 2.00021   
     axis 0 0 0   XYZ
    dof rx ry rz
    limits (-20.0 45.0)
           (-30.0 30.0)
           (-30.0 30.0)
  end
  begin
     id 12 
     name upperback
     direction -0.0152834 0.999474 -0.0286152   
     length 2.03728   
     axis 0 0 0   XYZ
    dof rx ry rz
    limits (-20.0 45.0)
           (-30.0 30.0)
           (-30.0 30.0)
  end
  begin
     id 13 
     name thorax
     direction -0.0323701 0.996236 0.0804149   
     length 2.16   
     axis 0 0 0   XYZ
    dof rx ry rz
    limits (-20.0 45.0)
           (-30.0 30.0)
           (-30.0 30.0)
  end
  begin
     id 14 
     name lowerneck
     direction 0.0307935 0.982251 0.185027   
     length 1.43558   
     axis 0 0 0   XYZ
    dof rx ry rz
    limits (-20.0 45.0)
           (-30.0 30.0)
           (-30.0 30.0)
  end
  begin
     id 15 
     name upperneck
     direction -0.0927153 0.994775 0.0427454   
     length 1.44603   
     axis 0 0 0   XYZ
    dof rx ry rz
    limits (-20.0 45.0)
           (-30.0 30.0)
           (-30.0 30.0)
  end
  begin
     id 16
     name head
     direction -0.0341265 0.999406 -0.00472033  
     length 1.45931  
     axis 0 0 0   XYZ
    dof rx ry rz
    limits (-20.0 45.0)
           (-30.0 30.0)
           (-30.0 30.0)
  end
  begin
     id 17 
     name lclavicle
     direction 0.820755 0.555306 -0.134151  
     length 2.66075  
     axis 0 0 0   XYZ
    dof ry rz
    limits (-20.0 10.0)
           (0.0 20.0)
  end
  begin
     id 18 
     name lhumerus
     direction 1 -4.48971e-011 5.24853e-027   
     length 5.0546   
     axis -180 -30 -90   XYZ
    dof rx ry rz
    limits (-60.0 90.0)
           (-90.0 90.0)
           (-90.0 90.0)
  end
  begin
     id 19
     name lradius
     direction 1 -4.48971e-011 2.76575e-028   
     length 3.39013   
     axis -180 -30 -90   XYZ
    dof rx
    limits (-10.0 170.0)
  end
  begin
     id 20
     name lwrist
     direction 1 -4.48939e-011 -2.27826e-027   
     length 1.69507   
     axis 2.17013e-015 90 90   XYZ
    dof ry
    limits (-180.0 0.0)
 end
  begin
     id 21 
     name lhand
     direction 1 -4.49009e-011 -4.55652e-027   
     length 0.572425   
     axis 2.90745e-015 90 90   XYZ
    dof rx rz
    limits (-90.0 90.0)
           (-45.0 45.0)
  end
  begin
     id 22 
     name lfingers
     direction 1 -4.48955e-011 -9.11303e-027   
     length 0.461504   
     axis 5.81489e-015 90 90   XYZ
    dof rx
    limits (0.0 90.0)
  end
  begin
     id 23
     name lthumb
     direction 0.707107 -6.34929e-011 0.707107   
     length 0.66263   
     axis -90 45 2.85299e-015   XYZ
    dof rx rz
    limits (-45.0 45.0)
           (-45.0 45.0)
  end
  begin
     id 24 
     name rclavicle
     direction -0.754477 0.632921 -0.173712   
     length 2.73081  
     axis 0 0 0   XYZ 
    dof ry rz
    limits (-10.0 20.0)
           (-20.0 0.0)
  end
  begin
     id 25 
     name rhumerus
     direction -1 -4.48969e-011 5.1496e-027  
     length 5.0701   
     axis -180 30 90   XYZ
    dof rx ry rz
    limits (-90.0 60.0)
           (-90.0 90.0)
           (-90.0 90.0)
  end
  begin
     id 26 
     name rradius
     direction -1 -4.48967e-011 -7.15624e-028   
     length 3.14957   
     axis -180 30 90   XYZ
    dof rx
    limits (-10.0 170.0)
  end
  begin
     id 27 
     name rwrist
     direction -1 -4.48938e-011 -2.27826e-027   
     length 1.57479   
     axis 2.17013e-015 -90 -90   XYZ
    dof ry
    limits (-180.0 0.0)
  end
  begin
     id 28
     name rhand
     direction -1 -4.49008e-011 -4.55652e-027   
     length 0.718191   
     axis 2.90745e-015 -90 -90   XYZ
    dof rx rz
    limits (-90.0 90.0)
           (-45.0 45.0)
  end
  begin
     id 29
     name rfingers
     direction -1 -4.48953e-011 -9.11303e-027   
     length 0.579024   
     axis 5.81489e-015 -90 -90   XYZ
    dof rx
    limits (0.0 90.0)
  end
  begin
     id 30
     name rthumb
     direction -0.707107 -6.34937e-011 0.707107   
     length 0.831366   
     axis -90 -45 -2.85299e-015   XYZ
    dof rx rz
    limits (-45.0 45.0)
           (-45.0 45.0)
  end
:hierarchy
  begin
    root lhipjoint rhipjoint lowerback
    lhipjoint lfemur
    lfemur ltibia
    ltibia lfoot
    lfoot ltoes
    rhipjoint rfemur
    rfemur rtibia
    rtibia rfoot
    rfoot rtoes
    lowerback upperback
    upperback thorax
    thorax lowerneck lclavicle rclavicle
    lowerneck upperneck
    upperneck head
    lclavicle lhumerus
    lhumerus lradius
    lradius lwrist
    lwrist lhand lthumb
    lhand lfingers
    rclavicle rhumerus
    rhumerus rradius
    rradius rwrist
    rwrist rhand rthumb
    rhand rfingers
  end

#!OML:ASF H:\Male1\Project 1\Capture day 1\Session 1\Male1.ASF
:FULLY-SPECIFIED
:DEGREES
42
root 32.0833 15.3138 -5.38823 0.639696 -81.0771 -3.00386
lowerback 5.23193 1.93511 -3.36267
upperback 5.27824 2.341 0.364144
thorax 2.36203 1.0054 2.18045
lowerneck -12.7523 4.89431 5.45792
upperneck 23.5482 6.03119 -2.95224
head 9.83089 2.83761 -1.22181
rclavicle 9.98893e-015 3.18055e-015
rhumerus -29.5714 12.173 -92.6256
rradius 33.3145
rwrist -19.6355
rhand -19.7074 -1.71892
rfingers 7.12502
rthumb 6.62233 -31.5954
lclavicle 9.98893e-015 3.18055e-015
lhumerus -24.6309 -4.7525 91.5625
lradius 26.2965
lwrist -6.1296
lhand -20.3906 11.6038
lfingers 7.12502
lthumb 5.96268 41.4999
rfemur -6.19823 18.2575 23.2475
rtibia 29.5863
rfoot -40.5839 -30.3494
rtoes -4.66121
lfemur -6.52709 -19.9293 -22.354
ltibia 30.3673
lfoot -28.3732 28.3737
ltoes 0.529262
43
root 32.0826 15.3142 -5.38787 0.536352 -81.0704 -2.89808
lowerback 5.2147 1.94602 -3.35902
upperback 5.26257 2.35717 0.33419
thorax 2.35565 1.01475 2.14724
lowerneck -12.7446 4.87691 5.54084
upperneck 23.5241 5.99667 -2.98653
head 9.82338 2.82563 -1.25207
rclavicle -1.63003e-014 5.56597e-015
rhumerus -29.5596 12.0853 -92.6332
rradius 33.2687
rwrist -19.6332
rhand -19.8512 -1.69831
rfingers 7.12502
rthumb 6.48348 -31.5791
lclavicle -1.63003e-014 5.56597e-015
lhumerus -24.5533 -4.92814 91.6046
lradius 26.3828
lwrist -6.14884
lhand -20.3679 11.124
lfingers 7.12502
lthumb 5.9846 41.0194
rfemur -6.18572 18.2093 23.2228
rtibia 29.5656
rfoot -40.503 -30.3826
rtoes -4.86647
lfemur -6.54018 -19.9335 -22.3703
ltibia 30.38
lfoot -28.3615 28.3999
ltoes 0.378126
44
root 32.0819 15.3145 -5.38728 0.47067 -81.0633 -2.83439
lowerback 5.19929 1.95454 -3.34898
upperback 5.25145 2.37012 0.308011
thorax 2.35328 1.0224 2.11449
lowerneck -12.7351 4.85775 5.61849
upperneck 23.4994 5.96054 -3.01936
head 9.81495 2.81259 -1.2812
rclavicle 2.23136e-014 1.45113e-014
rhumerus -29.5418 12.0205 -92.6416
rradius 33.2263
rwrist -19.6437
rhand -19.9715 -1.72066
rfingers 7.12502
rthumb 6.36736 -31.605
lclavicle 2.23136e-014 1.45113e-014
lhumerus -24.4658 -5.08817 91.6495
lradius 26.4465
lwrist -6.08885
lhand -20.2873 10.5928
lfingers 7.12502
lthumb 6.06247 40.486
rfemur -6.16275 18.1679 23.2063
rtibia 29.5331
rfoot -40.4342 -30.4119
rtoes -5.03348
lfemur -6.56167 -19.9238 -22.3768
ltibia 30.4041
lfoot -28.351 28.4121
ltoes 0.158593
45
root 32.0815 15.3149 -5.3866 0.511685 -81.0596 -2.8833
lowerback 5.21265 1.9573 -3.31705
upperback 5.2314 2.37483 0.285184
thorax 2.32674 1.02714 2.07212
lowerneck -12.7258 4.84174 5.67122
upperneck 23.4847 5.92826 -3.02741
head 9.80858 2.80169 -1.29708
rclavicle -1.58531e-014 8.15017e-015
rhumerus -29.5375 11.9811 -92.6603
rradius 33.1926
rwrist -19.6656
rhand -20.0623 -1.78298
rfingers 7.12502
rthumb 6.2797 -31.6699
lclavicle -1.58531e-014 8.15017e-015
lhumerus -24.3963 -5.24495 91.6966
lradius 26.507
lwrist -5.93066
lhand -20.0845 10.4544
lfingers 7.12502
lthumb 6.25819 40.342
rfemur -6.12634 18.1387 23.2107
rtibia 29.4813
rfoot -40.3767 -30.4338
rtoes -5.13878
lfemur -6.5952 -19.8815 -22.3582
ltibia 30.4464
lfoot -28.3475 28.3848
ltoes -0.0806011
46
root 32.0811 15.3155 -5.38585 0.710276 -81.0588 -3.09188
lowerback 5.23559 1.95646 -3.26119
upperback 5.21024 2.375 0.270653
thorax 2.2945 1.03029 2.02476
lowerneck -12.7186 4.82683 5.69846
upperneck 23.471 5.89829 -3.01532
head 9.80148 2.7918 -1.30139
rclavicle -1.93815e-014 -3.97569e-016
rhumerus -29.5332 11.9635 -92.6796
rradius 33.1711
rwrist -19.7111
rhand -20.1218 -1.86706
rfingers 7.12502
rthumb 6.22221 -31.7557
lclavicle -1.93815e-014 -3.97569e-016
lhumerus -24.3386 -5.40603 91.7501
lradius 26.5717
lwrist -5.71134
lhand -19.7179 10.8652
lfingers 7.12502
lthumb 6.61217 40.742
rfemur -6.08125 18.1215 23.2429
rtibia 29.4099
rfoot -40.3189 -30.4581
rtoes -5.20326
lfemur -6.64368 -19.7913 -22.3022
ltibia 30.5065
lfoot -28.3506 28.2961
ltoes -0.292845
